<svg xmlns="http://www.w3.org/2000/svg" xmlns:xlink="http://www.w3.org/1999/xlink" id="svg1" version="1.1" viewBox="0 0 393.31 393.31"><defs id="defs3"><linearGradient id="linearGradient1697"><stop id="stop1698" offset="0" stop-color="#db210e"/><stop id="stop1699" offset="1" stop-color="#761107"/></linearGradient><linearGradient id="linearGradient1076" x1="520.57" x2="520.57" y1="506.29" y2="466.28" gradientUnits="userSpaceOnUse" xlink:href="#linearGradient1697"/><linearGradient id="linearGradient1077" x1="522.94" x2="522.94" y1="469.5" y2="505.08" gradientUnits="userSpaceOnUse" xlink:href="#linearGradient1697"/><linearGradient id="linearGradient1078" x1="213.83" x2="214.59" y1="183.48" y2="463.47" gradientTransform="matrix(1.5539 0 0 .64354 -1.0179 0)" gradientUnits="userSpaceOnUse"><stop id="stop1703" offset="0" stop-color="#fff" stop-opacity=".691"/><stop id="stop1704" offset="1" stop-color="#fff" stop-opacity="0"/></linearGradient></defs><g id="layer1" transform="translate(-6.3422 -6.7204)"><path id="path1070" fill="url(#linearGradient1076)" stroke="url(#linearGradient1077)" stroke-linecap="round" stroke-linejoin="round" stroke-width="1.365" d="m544.07 487.06c0 11.479-9.3052 20.784-20.784 20.784s-20.784-9.3052-20.784-20.784 9.3052-20.784 20.784-20.784 20.784 9.3052 20.784 20.784z" transform="matrix(9.1612,0,0,9.1612,-4590.9,-4258.7)"/><path id="path1713" fill="url(#linearGradient1078)" fill-rule="evenodd" d="m471.57 246.89c44.37-0.97-12.4-123.16-135.68-123.81-134.56-0.68-162.09 110.96-140.72 113 0 0 36.87 5.06 71.94 14.86 56.47 15.93 125.55-13.07 152.77-17.29 30.34-4.69 47.37 15.4 51.69 13.24z" opacity=".9" transform="translate(-130.29,-93.649)"/></g><metadata id="metadata16"/></svg>