<svg xmlns="http://www.w3.org/2000/svg" xmlns:ns1="http://sozi.baierouge.fr" xmlns:svg="http://www.w3.org/2000/svg" xmlns:xlink="http://www.w3.org/1999/xlink" id="svg11300" viewBox="5 5 38 38"><defs id="defs3"><radialGradient id="radialGradient1438" cx="24.538" cy=".4" r="17.171" gradientTransform="matrix(-3.7494e-16 -2.0467 1.5576 -2.8534e-16 2.767 66.933)" gradientUnits="userSpaceOnUse"><stop id="stop8652" offset="0" stop-color="#fff"/><stop id="stop8654" offset="1" stop-color="#fff" stop-opacity="0"/></radialGradient><radialGradient id="radialGradient1441" cx="11.319" cy="22.455" r="16.956" gradientTransform="matrix(1.8719e-16 -.84302 1.0202 2.2652e-16 .60644 42.586)" gradientUnits="userSpaceOnUse"><stop id="stop2306" offset="0" stop-color="#73d216"/><stop id="stop2308" offset="1" stop-color="#4e9a06"/></radialGradient><radialGradient id="radialGradient1444" cx="24.837" cy="36.421" r="15.645" gradientTransform="matrix(1 0 0 .53672 1.6147e-15 16.873)" gradientUnits="userSpaceOnUse"><stop id="stop8664" offset="0" stop-color="#000"/><stop id="stop8666" offset="1" stop-color="#000" stop-opacity="0"/></radialGradient></defs><g id="layer1"><path id="path8660" fill="url(#radialGradient1444)" fill-rule="evenodd" d="m40.482 36.421a15.645 8.3969 0 1 1 -31.29 0 15.645 8.3969 0 1 1 31.29 0z" color="#000" opacity=".299" transform="matrix(1.2145 0 0 .59546 -6.1638 16.313)"/><path id="path8643" fill="url(#radialGradient1441)" fill-rule="evenodd" stroke="#3a7304" stroke-linecap="round" stroke-linejoin="round" stroke-miterlimit="10" d="m14.492 38.5h17.977v-12.953h8.031l-17.125-20.048-16.846 19.99 7.968 0.067-0.005 12.944z" color="#000"/><path id="path8645" fill="url(#radialGradient1438)" fill-rule="evenodd" d="m7.5855 25.033h7.4105l0.066 6.561c5.656-11 15.994-8.844 16.595-15.627 0 0-8.29-9.545-8.29-9.545l-15.782 18.611z" color="#000" opacity=".508"/><path id="path8658" fill="none" stroke="#fff" stroke-miterlimit="10" d="m15.603 37.5h15.9v-12.993h6.809l-14.951-17.437-14.706 17.48 6.82-0.022 0.128 12.972z" color="#000" opacity=".481"/></g><metadata/></svg>