<svg xmlns="http://www.w3.org/2000/svg" xmlns:ns1="http://sozi.baierouge.fr" xmlns:svg="http://www.w3.org/2000/svg" xmlns:xlink="http://www.w3.org/1999/xlink" id="svg11300" version="1.0" viewBox="0 0 38 38.001"><defs id="defs3"><radialGradient id="radialGradient4441" cx="24.837" cy="36.421" r="15.645" gradientTransform="matrix(1 0 0 .53672 0 16.873)" gradientUnits="userSpaceOnUse"><stop id="stop8664" offset="0" stop-color="#000"/><stop id="stop8666" offset="1" stop-color="#000" stop-opacity="0"/></radialGradient><radialGradient id="radialGradient4443" cx="35.293" cy="20.494" r="16.956" gradientTransform="matrix(0 .84302 -1.0202 0 45.89 1.3815)" gradientUnits="userSpaceOnUse"><stop id="stop1444" offset="0" stop-color="#ef2929"/><stop id="stop1446" offset="1" stop-color="#c00"/></radialGradient><radialGradient id="radialGradient4445" cx="15.987" cy="1.535" r="17.171" gradientTransform="matrix(0 2.0467 1.5576 0 2.3811 -22.965)" gradientUnits="userSpaceOnUse"><stop id="stop8652" offset="0" stop-color="#fff"/><stop id="stop8654" offset="1" stop-color="#fff" stop-opacity="0"/></radialGradient></defs><g id="layer1" transform="translate(-4.4681 -4.9677)"><g id="g4417"><path id="path8660" fill="url(#radialGradient4441)" fill-rule="evenodd" d="m40.482 36.421a15.645 8.3969 0 1 1 -31.29 0 15.645 8.3969 0 1 1 31.29 0z" opacity=".205" transform="matrix(1.2145 0 0 .59546 -6.6957 16.281)"/><path id="path8643" fill="url(#radialGradient4443)" fill-rule="evenodd" stroke="#a40000" stroke-linecap="round" stroke-linejoin="round" stroke-miterlimit="10" d="m31.978 5.4677l-18.005 0.0039v12.991l-7.9959 0.008 17.145 19.997 16.846-19.998-7.996-0.003 0.006-12.999z"/><path id="path8645" fill="url(#radialGradient4445)" fill-rule="evenodd" d="m7.0668 18.974l7.4062-0.012-0.003-12.992 15.379 0.0088c-0.77 18.341-10.723 10.993-15.382 21.647l-7.4002-8.652z" opacity=".508"/><path id="path8658" fill="none" stroke="#fff" stroke-miterlimit="10" d="m30.976 6.4716l-16.001-0.0039v12.993l-6.8172 0.015 14.954 17.453 14.707-17.457-6.84-0.005-0.003-12.995z" opacity=".481"/></g></g><metadata/></svg>