<svg xmlns="http://www.w3.org/2000/svg" xmlns:svg="http://www.w3.org/2000/svg" id="svg2" width="48" height="48" version="1.1"><defs id="defs4"><marker id="DotS" orient="auto" overflow="visible" refX="0" refY="0"><path id="path3826" fill-rule="evenodd" stroke="#000" stroke-width="1pt" d="M -2.5,-1.0 C -2.5,1.7600000 -4.7400000,4.0 -7.5,4.0 C -10.260000,4.0 -12.5,1.7600000 -12.5,-1.0 C -12.5,-3.7600000 -10.260000,-6.0 -7.5,-6.0 C -4.7400000,-6.0 -2.5,-3.7600000 -2.5,-1.0 z" transform="scale(0.2) translate(7.4, 1)"/></marker><marker id="DotL" orient="auto" overflow="visible" refX="0" refY="0"><path id="path3820" fill-rule="evenodd" stroke="#000" stroke-width="1pt" d="M -2.5,-1.0 C -2.5,1.7600000 -4.7400000,4.0 -7.5,4.0 C -10.260000,4.0 -12.5,1.7600000 -12.5,-1.0 C -12.5,-3.7600000 -10.260000,-6.0 -7.5,-6.0 C -4.7400000,-6.0 -2.5,-3.7600000 -2.5,-1.0 z" transform="scale(0.8) translate(7.4, 1)"/></marker></defs><metadata id="metadata7"/><g id="layer1" transform="translate(0,-1004.3622)"><path id="path2987" fill="none" stroke="#000" stroke-dasharray="none" stroke-linecap="butt" stroke-linejoin="miter" stroke-miterlimit="4" stroke-opacity="1" stroke-width=".213" d="m 16.304283,1043.0385 -4.2976,-2.8923 2.078,-12.1844 -2.078,-12.2847 4.2976,-2.7922 9.4887,15.0769 z"/></g></svg>