<svg xmlns="http://www.w3.org/2000/svg" viewBox="0 0 512 512"><defs><filter id="d"><feGaussianBlur in="SourceGraphic" stdDeviation="1.1"/></filter><linearGradient id="e" x1=".469" x2=".473" y1=".865" y2=".041" spreadMethod="reflect"><stop offset="0" stop-color="#f4278a" stop-opacity=".992"/><stop offset="1" stop-color="#ffe5f0" stop-opacity=".98"/></linearGradient><radialGradient id="f" cx=".293" cy=".119" r=".226" gradientTransform="rotate(50.276 .29297 .11914) translate(.47168) scale(-.61 1)"><stop offset="0" stop-color="#f9f4f4" stop-opacity=".996"/><stop offset="1" stop-color="#ff113d" stop-opacity=".996"/></radialGradient></defs><path fill="#ffd4aa" fill-rule="evenodd" stroke-width="0" d="m110.76 277.96l60.719 154.74 160.82 1.098 57.437-154.74-278.98-1.098h8e-6z"/><g stroke-linecap="round" stroke-linejoin="round"><g fill="#fff" stroke-dasharray="null" stroke-width="99"><rect width="2.461" height="163.42" x="166.02" y="271.23" transform="rotate(-14.546 167.25 352.94)"/><rect width="2.461" height="163.42" x="207.27" y="268.91" transform="rotate(-7.684 208.5 350.62)"/><rect width="2.461" height="163.42" x="250.39" y="268.29" transform="rotate(-1.302 251.62 350)"/><rect width="2.461" height="163.42" x="292.27" y="268.91" transform="rotate(4.0856 293.5 350.62)"/><rect width="2.461" height="163.42" x="331.89" y="272.04" transform="rotate(14.518 333.12 353.75)"/></g><g stroke-width="5.798"><g fill-rule="evenodd"><path fill="#7f0000" d="m165.96 250.7c0 21.697-19.187 39.286-42.857 39.286-23.669 0-42.857-17.589-42.857-39.286 0-21.696 19.188-39.285 42.857-39.285 23.67 0 42.857 17.589 42.857 39.285z"/><path fill="#ff007f" d="m216.39 254.41c0 21.697-19.188 39.285-42.857 39.285-23.67 0-42.857-17.588-42.857-39.285s19.187-39.286 42.857-39.286c23.669 0 42.857 17.589 42.857 39.286z"/><path fill="#7f0000" d="m258.11 257.48c0 21.697-19.188 39.286-42.857 39.286s-42.857-17.589-42.857-39.286 19.188-39.286 42.857-39.286 42.857 17.589 42.857 39.286z"/><path fill="#ff007f" d="m323.54 254.2c0 21.697-19.188 39.286-42.857 39.286-23.67 0-42.858-17.589-42.858-39.286 0-21.696 19.188-39.285 42.858-39.285 23.669 0 42.857 17.589 42.857 39.285z"/><path fill="#7f0000" d="m367.82 253.34c0 21.697-19.187 39.286-42.857 39.286-23.669 0-42.857-17.589-42.857-39.286s19.188-39.285 42.857-39.285c23.67 0 42.857 17.588 42.857 39.285z"/><path fill="#ff007f" d="m417.75 253.55c0 21.696-19.188 39.285-42.857 39.285s-42.857-17.589-42.857-39.285c0-21.697 19.188-39.286 42.857-39.286s42.857 17.589 42.857 39.286z"/><path fill="url(#e)" d="m209.98 125.54c-31.847 3.452-46.892 12.731-56.97 32.234s-40.568 23.184-48.344 31.432c-7.7755 8.248-17.742 39.266-5.062 47.98s1.609 22.179 28.789 32.143 38.851-42.618 67.488-15.196 35.737 15.76 42.969 14.486 14.48-27.776 29.9-11.601 33.464 11.094 50.029-8.743 56.943 43.483 84.903 1.197l3.078-13.715c11.772-23.393-13.401-59.635-43.224-64.653-29.822-5.019-4.294-33.656-54.119-38.845-49.825-5.188-68.352-42.651-57.657-35.673l-2-5.9817 3-5.9817c-14.284 17.945-19.933 37.466-51.78 40.917 37.496-22.972 31.847-3.451 0 0 37.496-22.972 31.847-3.451 0 0l47.78-33.938m152.24 134.4" filter="url(#d)"/></g><ellipse cx="245" cy="110" fill="url(#f)" rx="35" ry="36"/><g fill="#f9409a"><path d="m159 156c-26 34 71 26 36 31s-10-65-36-31z"/><path d="m219 194c36 8 61-10 61-10s67 9 67 9"/></g><g fill="#7f0000" stroke="#7f0000"><ellipse cx="196.74" cy="159.14" rx="5.657" ry="1" transform="rotate(-58.671 196.74 159.14)"/><ellipse cx="295" cy="177" rx="5.657" ry="1" transform="rotate(227.55 295 177)"/><ellipse cx="216" cy="211" rx="5.657" ry="1" transform="rotate(213.92 216 211)"/><ellipse cx="153" cy="185" rx="5.657" ry="1" transform="rotate(213.92 153 185)"/><ellipse cx="292" cy="135" rx="5.657" ry="1" transform="rotate(200.39 292 135)"/><ellipse cx="128" cy="203" rx="5.657" ry="1" transform="rotate(142.44 128 203)"/><ellipse cx="229" cy="256" rx="5.657" ry="1" transform="rotate(126.03 229 256)"/><ellipse cx="258.6" cy="168.26" rx="5.657" ry=".345" transform="rotate(112.94 258.6 168.26)"/><ellipse cx="369" cy="202" rx="5.657" ry="1" transform="rotate(106.16 369 202)"/><ellipse cx="143.44" cy="228.59" rx="5.624" ry="1.706" transform="rotate(132.32 142.5 233.5)"/><ellipse cx="335" cy="218" rx="5.657" ry="1" transform="rotate(213.92 335 218)"/><ellipse cx="392" cy="218" rx="5.657" ry="1" transform="rotate(213.92 392 218)"/><ellipse cx="275" cy="215" rx="5.657" ry="1" transform="rotate(136.79 275 215)"/><ellipse cx="221" cy="151" rx="5.657" ry="1" transform="rotate(213.92 221 151)"/><ellipse cx="171" cy="220" rx="5.657" ry="1" transform="rotate(149.53 171 220)"/><ellipse cx="331" cy="172" rx="5.657" ry="1" transform="rotate(86.644 331 172)"/><ellipse cx="170" cy="149" rx="5.657" ry="1" transform="rotate(159.51 170 149) translate(164.34 148) scale(1 .82496) translate(-164.34 -148)"/><ellipse cx="286.31" cy="248.03" rx="5.657" ry=".245" transform="rotate(213.92 286.3 248.03)"/><ellipse cx="283" cy="150" rx="5.657" ry="1" transform="rotate(128.94 283 150)"/></g></g></g></svg>