<svg xmlns="http://www.w3.org/2000/svg" xmlns:svg="http://www.w3.org/2000/svg" id="svg7384" width="16" height="16" version="1.1"><metadata id="metadata90"/><title id="title9167">Gnome Symbolic Icon Theme</title><g id="g2984"><g id="g2988" transform="matrix(2,0,0,2,-4,-12.5)"><path id="rect3754" fill="#09ddff" fill-opacity="1" stroke="none" stroke-width=".889" d="m 5.2343749,6.7500002 c -0.2676239,0 -0.526624,0.058234 -0.7382813,0.1640625 -0.2116574,0.1058287 -0.4375,0.2851226 -0.4375,0.6015626 l 0,3.1171877 c 0,0.316441 0.2258426,0.523078 0.4375,0.628907 0.2116573,0.105828 0.4706574,0.164062 0.7382813,0.164062 l 1.5312501,0 c 0.2676239,0 0.5266239,-0.05823 0.7382813,-0.164062 0.2116573,-0.105829 0.4375,-0.312466 0.4375,-0.628907 l 0,-3.1171877 c 0,-0.31644 -0.2258427,-0.4957339 -0.4375,-0.6015626 C 7.2922489,6.8082341 7.0332489,6.7500002 6.765625,6.7500002 l -1.5312501,0 z M 4.8242186,7.5156253 c 0,0.1009955 -0.042165,0.1167859 0.027344,0.082031 0.069509,-0.034755 0.2195475,-0.082031 0.3828125,-0.082031 l 1.5312501,0 c 0.163265,0 0.3133032,0.047276 0.3828125,0.082031 0.069509,0.034755 0.027344,0.018965 0.027344,-0.082031 l 0,3.1171877 c 0,-0.100995 0.042165,-0.08944 -0.027344,-0.05469 -0.069509,0.03476 -0.2195475,0.05469 -0.3828125,0.05469 l -1.5312501,0 c -0.163265,0 -0.3133032,-0.01993 -0.3828125,-0.05469 -0.069509,-0.03476 -0.027344,-0.04631 -0.027344,0.05469 l 0,-3.1171877 z" baseline-shift="baseline" color="#000" direction="ltr" display="inline" enable-background="accumulate" font-family="Sans" font-size="medium" font-stretch="normal" font-style="normal" font-variant="normal" font-weight="normal" letter-spacing="normal" overflow="visible" text-anchor="start" text-decoration="none" visibility="visible" word-spacing="normal" writing-mode="lr-tb" style="text-indent:0;text-align:start;line-height:normal;text-transform:none;block-progression:tb;marker:none;-inkscape-font-specification:Sans"/><rect id="rect2982" width="6.222" height="4.667" x="2.889" y="9.083" fill="#09ddff" fill-opacity="1" stroke="none" rx=".778" ry=".389"/></g></g></svg>