<svg xmlns="http://www.w3.org/2000/svg" xmlns:svg="http://www.w3.org/2000/svg" id="svg7384" width="16" height="16" version="1.1"><metadata id="metadata90"/><title id="title9167">Gnome Symbolic Icon Theme</title><g id="layer12" transform="translate(-241 -667)"><g id="layer9-0" transform="matrix(0.75,0,0,0.75,207.94915,415.875)"><path id="rect20599-4" fill="#bebebe" d="m 46.8678,344.46667 c -1.450867,0.13249 -2.8,1.61691 -2.8,3.42857 v 4.57143 h 9.333333 v -4.57143 c 0,-1.81167 -1.349133,-3.29611 -2.8,-3.42857 v 1.14286 H 46.8678 z" color="#bebebe"/><path id="path20580-7" fill="#bebebe" d="m 51.734466,341.53334 a 3,3 0 0 1 -6,0 3,3 0 1 1 6,0 z" color="#bebebe"/></g><g id="layer12-1" transform="matrix(0.80000002,0,0,0.75,52.213074,165.24252)"><g id="g3034" transform="matrix(0.80580175,0,0,1,51.310006,0.6791911)"><path id="path15405" fill="#bebebe" d="m 244,674 v 2 h 10 v -2 h -10 z" color="#000" style="text-indent:0;text-transform:none;block-progression:tb"/><path id="rect3217-6-2-2-4-85-5-2" fill="#bebebe" d="m 247,671 v 1 c 0,0.25689 -0.12983,0.52846 -0.3125,0.71875 l -2.28,2.28 2.2812,2.2812 c 0.18267,0.19029 0.3125,0.46186 0.3125,0.71875 v 1 h -1 c -0.30945,0 -0.55232,-0.0903 -0.75,-0.28125 l -3.66,-3.72 3.66,-3.72 c 0.2,-0.19 0.44,-0.28 0.75,-0.28 z" color="#bebebe" style="text-indent:0;text-transform:none;block-progression:tb"/></g><g id="layer12-9" transform="matrix(0.80580175,0,0,1,49.368024,8.6767411)"><g id="g3030"><path id="path15405-2" fill="#bebebe" d="m 244,674 v 2 h 10 v -2 h -10 z" color="#000" style="text-indent:0;text-transform:none;block-progression:tb"/><path id="rect3217-6-2-2-4-85-5" fill="#bebebe" d="m 251,671 v 1 c 0,0.25689 0.12983,0.52846 0.3125,0.71875 l 2.2812,2.2812 -2.2812,2.2812 C 251.12983,677.47144 251,677.74301 251,677.9999 v 1 h 1 c 0.30945,0 0.55232,-0.0903 0.75,-0.28125 l 3.66,-3.72 -3.66,-3.72 c -0.2,-0.19 -0.44,-0.28 -0.75,-0.28 z" color="#bebebe" style="text-indent:0;text-transform:none;block-progression:tb"/></g></g></g></g></svg>