<svg xmlns="http://www.w3.org/2000/svg" xmlns:svg="http://www.w3.org/2000/svg" id="svg7384" width="24" height="16" version="1.1"><title id="title9167">Gnome Symbolic Icon Theme</title><metadata id="metadata90"/><g id="layer12" fill="#7d7d7d" fill-opacity="1" transform="matrix(0.81218066,0,0,0.74216585,-46.039508,-384.78539)"><g id="layer4-4-1" fill="#7d7d7d" fill-opacity="1" display="inline" transform="translate(19,-242)"><path id="path10839-9" fill="#7d7d7d" fill-opacity="1" fill-rule="nonzero" stroke="none" stroke-width="1.781" d="m 45,764 1,0 c 0.01037,-1.2e-4 0.02079,-4.6e-4 0.03125,0 0.254951,0.0112 0.50987,0.12858 0.6875,0.3125 L 49,766.59375 51.3125,764.3125 C 51.578125,764.082 51.759172,764.007 52,764 l 1,0 0,1 c 0,0.28647 -0.03434,0.55065 -0.25,0.75 l -2.28125,2.28125 2.25,2.25 C 52.906938,770.46942 52.999992,770.7347 53,771 l 0,1 -1,0 c -0.265301,-10e-6 -0.530586,-0.0931 -0.71875,-0.28125 L 49,769.4375 46.71875,771.71875 C 46.530586,771.90694 46.26529,772 46,772 l -1,0 0,-1 c -3e-6,-0.26529 0.09306,-0.53058 0.28125,-0.71875 l 2.28125,-2.25 L 45.28125,765.75 C 45.070508,765.55537 44.97809,765.28075 45,765 l 0,-1 z" color="#bebebe" direction="ltr" display="inline" enable-background="new" font-family="Andale Mono" font-size="medium" font-stretch="normal" font-style="normal" font-variant="normal" font-weight="normal" letter-spacing="normal" overflow="visible" text-anchor="start" text-decoration="none" visibility="visible" word-spacing="normal" writing-mode="lr-tb" style="text-indent:0;text-align:start;line-height:normal;text-transform:none;block-progression:tb;marker:none;-inkscape-font-specification:Andale Mono"/></g></g><g id="g3019" transform="matrix(1.0150944,0,0,1.0446429,1.8373197,-18.180466)"><g id="g3013"><g id="g3008"><g id="g3002" transform="matrix(1.2559241,0,0,1.2240437,-1.8922191,16.38394)"><g id="g3005"><path id="path3003" fill="#7d7d7d" fill-opacity="1" d="m 3.3682081,11.479936 0,-1.3125 -1.40625,0 -1.40625,0 0,-4.4062501 0,-4.40625 5.21875,0 5.2187499,0 0,1.3125 0,1.3125 1.375,0 1.375,0 0,4.40625 0,4.4062501 -5.1874999,0 -5.1875,0 0,-1.3125 z m 9.4374999,-3.0937501 0,-3.46875 -0.90625,0 -0.90625,0 0,2.625 0,2.6250001 -3.3437499,0 -3.34375,0 0,0.84375 0,0.84375 4.25,0 4.2499999,0 0,-3.4687501 z m -2.75,-1.71875 0,-2.5625 0.258229,0 0.25823,0 -0.03562,-0.2655874 C 10.50988,3.6405548 10.444937,3.5224553 10.278315,3.3697573 10.084592,3.1922238 10.055708,3.1282017 10.055708,2.8763433 c 0,-0.2539475 0.02735,-0.3131972 0.223198,-0.4835338 0.170381,-0.1481869 0.231488,-0.2569802 0.25823,-0.4597486 l 0.03503,-0.265625 -0.263165,0 c -0.226225,0 -0.3135952,0.043864 -0.622452,0.3125 -0.1976094,0.171875 -0.4094138,0.3125 -0.4706775,0.3125 -0.061264,0 -0.2652544,-0.140625 -0.4533132,-0.3125 -0.288515,-0.2636866 -0.3801887,-0.3125 -0.5868881,-0.3125 -0.241975,0 -0.2449631,0.0029 -0.2449631,0.2375 0,0.130625 0.03375,0.27125 0.075,0.3125 0.058333,0.058333 -0.6569444,0.075 -3.21875,0.075 l -3.29375,0 0,3.46875 0,3.46875 4.28125,0 4.2812499,0 0,-2.5625 z"/></g></g></g></g></g><rect id="rect3011" width="7.25" height=".938" x="4.813" y=".875" fill="#7d7d7d" fill-opacity="1"/><rect id="rect3026" width="12.188" height="1.625" x="1.25" y=".688" fill="#7d7d7d" fill-opacity="1"/><rect id="rect3028" width=".75" height="9.063" x="1.313" y="2.125" fill="#7d7d7d" fill-opacity="1"/><rect id="rect3030" width="11.438" height="1.125" x="1.313" y="10.25" fill="#7d7d7d" fill-opacity="1"/><rect id="rect3032" width="1.125" height="8.75" x="12.75" y="2.313" fill="#7d7d7d" fill-opacity="1"/><rect id="rect3042" width=".813" height="3.063" x="4.938" y="11.438" fill="#7d7d7d" fill-opacity="1"/></svg>