<svg xmlns="http://www.w3.org/2000/svg" xmlns:svg="http://www.w3.org/2000/svg" id="svg7384" width="16" height="16" version="1.1"><metadata id="metadata90"/><title id="title9167">Gnome Symbolic Icon Theme</title><path id="rect2985" fill="#bebebe" fill-opacity="1" stroke="none" stroke-width="1.077" d="M 1,1 1,1.53125 1,14.46875 1,15 1.53125,15 9,15 15,9 15,1.53125 15,1 14.46875,1 1.53125,1 z m 1,1.0625 12,0 L 14,9 9,14 2,13.9375 z" baseline-shift="baseline" color="#000" direction="ltr" display="inline" enable-background="accumulate" font-family="Sans" font-size="medium" font-stretch="normal" font-style="normal" font-variant="normal" font-weight="normal" letter-spacing="normal" overflow="visible" text-anchor="start" text-decoration="none" visibility="visible" word-spacing="normal" writing-mode="lr-tb" style="text-indent:0;text-align:start;line-height:normal;text-transform:none;block-progression:tb;marker:none;-inkscape-font-specification:Sans"/><path id="rect3761" fill="#bebebe" fill-opacity="1" stroke="none" stroke-width="1" d="M 9,9 9,9.5 9,14 9,15 15,9 14,9 9.5,9 z m 1,1 3,0 -3,3 z" baseline-shift="baseline" color="#000" direction="ltr" display="inline" enable-background="accumulate" font-family="Sans" font-size="medium" font-stretch="normal" font-style="normal" font-variant="normal" font-weight="normal" letter-spacing="normal" overflow="visible" text-anchor="start" text-decoration="none" visibility="visible" word-spacing="normal" writing-mode="lr-tb" style="text-indent:0;text-align:start;line-height:normal;text-transform:none;block-progression:tb;marker:none;-inkscape-font-specification:Sans"/><rect id="rect3016" width="8" height="1" x="4" y="3" fill="#bebebe" fill-opacity="1" stroke="none"/><rect id="rect3016-7" width="8" height="1" x="4" y="5" fill="#bebebe" fill-opacity="1" stroke="none"/><rect id="rect3016-2" width="5" height="1" x="4" y="7" fill="#bebebe" fill-opacity="1" stroke="none"/></svg>