<svg xmlns="http://www.w3.org/2000/svg" xmlns:svg="http://www.w3.org/2000/svg" id="svg7384" width="16" height="16" version="1.1"><metadata id="metadata90"/><title id="title9167">Gnome Symbolic Icon Theme</title><path id="rect2985" fill="#bebebe" fill-opacity="1" stroke="none" stroke-width="1.077" d="M 1,1 1,1.53125 1,14.46875 1,15 1.53125,15 9,15 15,9 15,1.53125 15,1 14.46875,1 1.53125,1 z m 1,1.0625 12,0 L 14,9 9,14 2,13.9375 z" baseline-shift="baseline" color="#000" direction="ltr" display="inline" enable-background="accumulate" font-family="Sans" font-size="medium" font-stretch="normal" font-style="normal" font-variant="normal" font-weight="normal" letter-spacing="normal" overflow="visible" text-anchor="start" text-decoration="none" visibility="visible" word-spacing="normal" writing-mode="lr-tb" style="text-indent:0;text-align:start;line-height:normal;text-transform:none;block-progression:tb;marker:none;-inkscape-font-specification:Sans"/><path id="rect3761" fill="#bebebe" fill-opacity="1" stroke="none" stroke-width="1" d="M 9,9 9,9.5 9,14 9,15 15,9 14,9 9.5,9 z m 1,1 3,0 -3,3 z" baseline-shift="baseline" color="#000" direction="ltr" display="inline" enable-background="accumulate" font-family="Sans" font-size="medium" font-stretch="normal" font-style="normal" font-variant="normal" font-weight="normal" letter-spacing="normal" overflow="visible" text-anchor="start" text-decoration="none" visibility="visible" word-spacing="normal" writing-mode="lr-tb" style="text-indent:0;text-align:start;line-height:normal;text-transform:none;block-progression:tb;marker:none;-inkscape-font-specification:Sans"/><rect id="rect3016" width="6" height="1" x="6" y="4" fill="#bebebe" fill-opacity="1" stroke="none"/><rect id="rect3016-7" width="6" height="1" x="6" y="7" fill="#bebebe" fill-opacity="1" stroke="none"/><path id="path3832" fill="none" stroke="#bebebe" stroke-dasharray="none" stroke-linecap="butt" stroke-linejoin="miter" stroke-miterlimit="4" stroke-opacity=".941" stroke-width=".9" d="m 2.45,4.1597562 c 0,0 0.5752734,0.2876366 0.9108495,0.7190916 C 3.6964256,5.3103028 3.7923044,5.55 3.7923044,5.55 c 0,0 -0.3355761,-0.431455 0.6232128,-1.3423044 C 5.3743061,3.2968462 6.3330949,2.9133307 6.3330949,2.9133307"/><path id="path3832-1" fill="none" stroke="#bebebe" stroke-dasharray="none" stroke-linecap="butt" stroke-linejoin="miter" stroke-miterlimit="4" stroke-opacity=".941" stroke-width=".9" d="m 2.45,7.1597562 c 0,0 0.5752734,0.2876366 0.9108495,0.7190916 C 3.6964256,8.3103028 3.7923044,8.55 3.7923044,8.55 c 0,0 -0.3355761,-0.431455 0.6232128,-1.3423044 C 5.3743061,6.2968462 6.3330949,5.9133307 6.3330949,5.9133307"/></svg>