<svg xmlns="http://www.w3.org/2000/svg" xmlns:svg="http://www.w3.org/2000/svg" id="svg7384" width="16" height="16" version="1.1"><metadata id="metadata90"/><title id="title9167">Gnome Symbolic Icon Theme</title><g id="g3934" transform="matrix(0.8657072,0,0,1.1059044,1.0743426,-2.4826617)"><path font-size="medium" style="text-indent:0;text-align:start;line-height:normal;text-transform:none;block-progression:tb;marker:none;-inkscape-font-specification:Sans" id="path2990" fill="#bebebe" fill-opacity="1" fill-rule="evenodd" stroke="none" stroke-width="1" d="m 8.0079451,4.9576273 c -1.4984264,0 -3.0768787,0.2769282 -4.1056952,0.78125 -1.0288164,0.5043218 -3.0822499,2.25 -3.0822499,2.25 0,0 2.0534335,1.7456782 3.0822499,2.2499997 1.0288165,0.504322 2.6072688,0.8125 4.1056952,0.8125 1.4984264,0 3.0459879,-0.308178 4.0748049,-0.8125 1.028816,-0.5043215 3.11225,-2.2499997 3.11225,-2.2499997 0,0 -2.083434,-1.7456782 -3.11225,-2.25 -1.028817,-0.5043218 -2.5763785,-0.78125 -4.0748049,-0.78125 z m 0,1 c 1.3659656,0 2.7889979,0.2716638 3.6373049,0.6875 0.848305,0.4158362 2.049527,1.34375 2.049527,1.34375 0,0 -1.201222,0.9591638 -2.049527,1.375 -0.848306,0.4158362 -2.2713393,0.6874997 -3.6373049,0.6874997 -1.3659656,0 -2.8198892,-0.2716635 -3.6681951,-0.6874997 -0.8483058,-0.4158362 -2.0193476,-1.375 -2.0193476,-1.375 0,0 1.1710417,-0.9279138 2.0193476,-1.34375 0.8483059,-0.4158362 2.3022295,-0.6875 3.6681951,-0.6875 z" baseline-shift="baseline" color="#000" direction="ltr" display="inline" enable-background="accumulate" font-family="Sans" font-stretch="normal" font-style="normal" font-variant="normal" font-weight="normal" letter-spacing="normal" overflow="visible" text-anchor="start" text-decoration="none" visibility="visible" word-spacing="normal" writing-mode="lr-tb"/><rect id="rect3770" width="1" height="3" x="7.5" y="11" fill="#bebebe" fill-opacity="1" stroke="none" rx="0" ry=".5"/><rect id="rect3770-1" width="1" height="3" x="7.019" y="13.066" fill="#bebebe" fill-opacity="1" stroke="none" rx="0" ry=".5" transform="matrix(0.96592583,-0.25881905,0.25881905,0.96592583,0,0)"/><rect id="rect3770-8" width="1" height="3" x="3.37" y="16.376" fill="#bebebe" fill-opacity="1" stroke="none" rx="0" ry=".5" transform="matrix(0.67547243,-0.73738524,0.73745612,0.67539505,0,0)"/><rect id="rect3770-8-2" width="1" height="3" x="4.962" y="15.161" fill="#bebebe" fill-opacity="1" stroke="none" rx="0" ry=".5" transform="matrix(0.83671075,-0.54764507,0.54764507,0.83671075,0,0)"/><rect id="rect3770-1-1" width="1" height="3" x="-8.437" y="8.925" fill="#bebebe" fill-opacity="1" stroke="none" rx="0" ry=".5" transform="matrix(-0.96592583,-0.25881905,-0.25881905,0.96592583,0,0)"/><rect id="rect3770-8-2-0" width="1" height="3" x="-8.425" y="6.399" fill="#bebebe" fill-opacity="1" stroke="none" rx="0" ry=".5" transform="matrix(-0.83671075,-0.54764507,-0.54764507,0.83671075,0,0)"/><rect id="rect3770-8-23" width="1" height="3" x="-7.436" y="4.578" fill="#bebebe" fill-opacity="1" stroke="none" rx="0" ry=".5" transform="matrix(-0.67543374,-0.73742068,-0.73742068,0.67543374,0,0)"/></g></svg>