<svg xmlns="http://www.w3.org/2000/svg" xmlns:svg="http://www.w3.org/2000/svg" id="svg7384" width="16" height="16" version="1.1"><metadata id="metadata90"/><title id="title9167">Gnome Symbolic Icon Theme</title><path id="rect2982-6" fill="#bebebe" fill-opacity="1" stroke="none" d="m -12.313708,-10.313708 0.999999,-1.000001 1.000001,1.000001 0,9.99999969 -2,0 z" transform="matrix(-0.70710678,-0.70710678,0.70710678,-0.70710678,0,0)"/><path id="path2991" fill="#bebebe" fill-opacity="1" stroke="none" d="m 12.542373,7.7966104 a 4.8135595,2.1694915 0 1 1 -9.6271189,0 4.8135595,2.1694915 0 1 1 9.6271189,0 z" transform="matrix(0.70710678,0.70710678,-0.70710678,0.70710678,7.7822935,-2.7124866)"/><path id="rect3761" fill="#bebebe" fill-opacity="1" stroke="none" d="m 11.242641,1.9289321 2.828427,2.8284272 c 0,0 -1.767575,1.0608518 -2.474682,1.7679586 C 10.889279,7.2324247 9.8284267,9 9.8284267,9 L 7,6.1715728 c 0,0 1.7679586,-1.0604684 2.475065,-1.7675752 0.707107,-0.7071068 1.767576,-2.4750655 1.767576,-2.4750655 z"/><path id="path3764" fill="#bebebe" fill-opacity="1" stroke="none" d="m 14.983051,2.5084746 a 4.1355934,1.9661016 0 1 1 -8.2711865,0 4.1355934,1.9661016 0 1 1 8.2711865,0 z" transform="matrix(0.70710678,0.70710678,-0.70710678,0.70710678,6.8421586,-6.1827806)"/></svg>