<svg xmlns="http://www.w3.org/2000/svg" xmlns:svg="http://www.w3.org/2000/svg" id="svg7384" width="16" height="16" version="1.1"><metadata id="metadata90"/><title id="title9167">Gnome Symbolic Icon Theme</title><g id="layer9" display="inline" transform="translate(-101.0002,-317)"><rect id="rect5434" width="1" height="1" x="102.435" y="327.558" fill="#bebebe" fill-opacity="1" fill-rule="nonzero" stroke="none" stroke-width=".122" color="#bebebe" display="inline" enable-background="new" overflow="visible" rx=".244" ry=".36" visibility="visible" style="marker:none"/><rect id="rect5436" width="1" height="1" x="114.984" y="327.558" fill="#bebebe" fill-opacity="1" fill-rule="nonzero" stroke="none" stroke-width=".113" color="#bebebe" display="inline" enable-background="new" overflow="visible" rx=".244" ry=".36" visibility="visible" style="marker:none"/><rect id="rect11189" width="1.518" height="1.007" x="-310.698" y="-166.907" fill="#bebebe" fill-opacity="1" fill-rule="nonzero" stroke="none" stroke-width=".101" color="#bebebe" display="inline" enable-background="new" overflow="visible" rx=".252" ry=".252" transform="matrix(-0.73262078,-0.68063705,0.73262078,-0.68063705,0,0)" visibility="visible" style="marker:none"/><rect id="rect11189-3" width="1.518" height="1.007" x="136.569" y="-305.764" fill="#bebebe" fill-opacity="1" fill-rule="nonzero" stroke="none" stroke-width=".101" color="#bebebe" display="inline" enable-background="new" overflow="visible" rx=".252" ry=".252" transform="matrix(-0.68063705,0.73262078,-0.68063705,-0.73262078,0,0)" visibility="visible" style="marker:none"/><rect id="rect5448" width="1" height="1" x="-323" y="108.763" fill="#bebebe" fill-opacity="1" fill-rule="nonzero" stroke="none" stroke-width=".103" color="#bebebe" display="inline" enable-background="new" overflow="visible" rx=".254" ry=".26" transform="rotate(-90)" visibility="visible" style="marker:none"/><path d="m 107.24548,326.00034 c -0.16704,0.009 -0.32215,0.11722 -0.37496,0.26083 l -0.83643,2.21705 c -0.10137,0.23354 0.12645,0.52786 0.4038,0.52166 0,0 1.0705,1.2e-4 2.56698,1.2e-4 1.49648,0 2.56698,-1.2e-4 2.56698,-1.2e-4 0.27735,0.006 0.50517,-0.28812 0.4038,-0.52166 l -0.83643,-2.21705 c -0.0727,-0.19298 -0.33686,-0.30615 -0.54801,-0.23475 -0.21274,0.0692 -0.82049,0.26083 -1.58634,0.26083 -0.76585,0 -1.37363,-0.19167 -1.58634,-0.26083 -0.0548,-0.0194 -0.11421,-0.0284 -0.17305,-0.026 z" style="marker:none" id="path7977" fill="#bebebe" fill-opacity="1" fill-rule="nonzero" stroke="none" stroke-width="1" color="#000" display="inline" enable-background="accumulate" overflow="visible" visibility="visible"/></g></svg>