<svg xmlns="http://www.w3.org/2000/svg" xmlns:svg="http://www.w3.org/2000/svg" id="svg7384" width="16" height="16" version="1.1"><metadata id="metadata90"/><title id="title9167">Gnome Symbolic Icon Theme</title><g id="layer9" display="inline" transform="translate(-101.0002,-317)"><rect id="rect5434" width="2.972" height="2" x="101" y="327" fill="#bebebe" fill-opacity="1" fill-rule="nonzero" stroke="none" stroke-width="2" color="#bebebe" display="inline" enable-background="new" overflow="visible" rx=".472" ry=".5" visibility="visible" style="marker:none"/><rect id="rect5436" width="3.016" height="2" x="113.984" y="327" fill="#bebebe" fill-opacity="1" fill-rule="nonzero" stroke="none" stroke-width="2" color="#bebebe" display="inline" enable-background="new" overflow="visible" rx=".5" ry=".5" visibility="visible" style="marker:none"/><rect id="rect11183" width="3.016" height="2" x="-149.873" y="308.006" fill="#bebebe" fill-opacity="1" fill-rule="nonzero" stroke="none" stroke-width="2" color="#bebebe" display="inline" enable-background="new" overflow="visible" rx=".5" ry=".5" transform="matrix(0.70710678,-0.70710678,0.70710678,0.70710678,0,0)" visibility="visible" style="marker:none"/><rect id="rect11189" width="3.016" height="2" x="-304.019" y="-155.857" fill="#bebebe" fill-opacity="1" fill-rule="nonzero" stroke="none" stroke-width="2" color="#bebebe" display="inline" enable-background="new" overflow="visible" rx=".5" ry=".5" transform="matrix(-0.70710678,-0.70710678,0.70710678,-0.70710678,0,0)" visibility="visible" style="marker:none"/><rect id="rect5448" width="3" height="2" x="-323" y="108" fill="#bebebe" fill-opacity="1" fill-rule="nonzero" stroke="none" stroke-width="2" color="#bebebe" display="inline" enable-background="new" overflow="visible" rx=".5" ry=".5" transform="matrix(0,-1,1,0,0,0)" visibility="visible" style="marker:none"/><path d="m 107.24548,326.00034 c -0.16704,0.009 -0.32215,0.11722 -0.37496,0.26083 l -0.83643,2.21705 c -0.10137,0.23354 0.12645,0.52786 0.4038,0.52166 0,0 1.0705,1.2e-4 2.56698,1.2e-4 1.49648,0 2.56698,-1.2e-4 2.56698,-1.2e-4 0.27735,0.006 0.50517,-0.28812 0.4038,-0.52166 l -0.83643,-2.21705 c -0.0727,-0.19298 -0.33686,-0.30615 -0.54801,-0.23475 -0.21274,0.0692 -0.82049,0.26083 -1.58634,0.26083 -0.76585,0 -1.37363,-0.19167 -1.58634,-0.26083 -0.0548,-0.0194 -0.11421,-0.0284 -0.17305,-0.026 z" style="marker:none" id="path7977" fill="#bebebe" fill-opacity="1" fill-rule="nonzero" stroke="none" stroke-width="1" color="#000" display="inline" enable-background="accumulate" overflow="visible" visibility="visible"/></g></svg>